<svg width="138" height="145" viewBox="0 0 138 145" fill="none" xmlns="http://www.w3.org/2000/svg">
<g filter="url(#filter0_i_287_2351)">
<path d="M69 125.625L103.375 144.375L137.75 125.625V81.875L103.375 103.75L69 81.875V125.625Z" fill="white" fill-opacity="0.02"/>
<path d="M69 125.625L103.375 144.375L137.75 125.625V81.875L103.375 103.75L69 81.875V125.625Z" fill="url(#paint0_linear_287_2351)" fill-opacity="0.2"/>
<path d="M0.25 81.875L34.625 63.125L69 81.875L34.625 103.75V144.375L0.25 125.625V81.875Z" fill="white" fill-opacity="0.02"/>
<path d="M0.25 81.875L34.625 63.125L69 81.875L34.625 103.75V144.375L0.25 125.625V81.875Z" fill="url(#paint1_linear_287_2351)" fill-opacity="0.2"/>
<path d="M103.375 63.125L69 81.875V41.25L34.625 19.375L69 0.625L103.375 19.375V63.125Z" fill="white" fill-opacity="0.02"/>
<path d="M103.375 63.125L69 81.875V41.25L34.625 19.375L69 0.625L103.375 19.375V63.125Z" fill="url(#paint2_linear_287_2351)" fill-opacity="0.2"/>
</g>
<defs>
<filter id="filter0_i_287_2351" x="0.25" y="0.625" width="137.5" height="143.75" filterUnits="userSpaceOnUse" color-interpolation-filters="sRGB">
<feFlood flood-opacity="0" result="BackgroundImageFix"/>
<feBlend mode="normal" in="SourceGraphic" in2="BackgroundImageFix" result="shape"/>
<feColorMatrix in="SourceAlpha" type="matrix" values="0 0 0 0 0 0 0 0 0 0 0 0 0 0 0 0 0 0 127 0" result="hardAlpha"/>
<feOffset/>
<feGaussianBlur stdDeviation="6"/>
<feComposite in2="hardAlpha" operator="arithmetic" k2="-1" k3="1"/>
<feColorMatrix type="matrix" values="0 0 0 0 1 0 0 0 0 1 0 0 0 0 1 0 0 0 0.2 0"/>
<feBlend mode="normal" in2="shape" result="effect1_innerShadow_287_2351"/>
</filter>
<linearGradient id="paint0_linear_287_2351" x1="69" y1="-68.4999" x2="69" y2="144.375" gradientUnits="userSpaceOnUse">
<stop stop-color="white"/>
<stop offset="0.773658" stop-color="white" stop-opacity="0"/>
</linearGradient>
<linearGradient id="paint1_linear_287_2351" x1="69" y1="-68.4999" x2="69" y2="144.375" gradientUnits="userSpaceOnUse">
<stop stop-color="white"/>
<stop offset="0.773658" stop-color="white" stop-opacity="0"/>
</linearGradient>
<linearGradient id="paint2_linear_287_2351" x1="69" y1="-68.4999" x2="69" y2="144.375" gradientUnits="userSpaceOnUse">
<stop stop-color="white"/>
<stop offset="0.773658" stop-color="white" stop-opacity="0"/>
</linearGradient>
</defs>
</svg>
