<svg width="126" height="125" viewBox="0 0 126 125" fill="none" xmlns="http://www.w3.org/2000/svg">
<g filter="url(#filter0_i_287_2293)">
<path d="M31.75 62.5L63 31.25L94.25 62.5L63 93.75L31.75 62.5Z" fill="white" fill-opacity="0.02"/>
<path d="M31.75 62.5L63 31.25L94.25 62.5L63 93.75L31.75 62.5Z" fill="url(#paint0_linear_287_2293)" fill-opacity="0.2"/>
<path d="M125.5 25V62.5L63 0H100.5L125.5 25Z" fill="white" fill-opacity="0.02"/>
<path d="M125.5 25V62.5L63 0H100.5L125.5 25Z" fill="url(#paint1_linear_287_2293)" fill-opacity="0.2"/>
<path d="M125.5 100V62.5L63 125H100.5L125.5 100Z" fill="white" fill-opacity="0.02"/>
<path d="M125.5 100V62.5L63 125H100.5L125.5 100Z" fill="url(#paint2_linear_287_2293)" fill-opacity="0.2"/>
<path d="M0.5 100V62.5L63 125H25.5L0.5 100Z" fill="white" fill-opacity="0.02"/>
<path d="M0.5 100V62.5L63 125H25.5L0.5 100Z" fill="url(#paint3_linear_287_2293)" fill-opacity="0.2"/>
<path d="M0.5 25V62.5L63 0H25.5L0.5 25Z" fill="white" fill-opacity="0.02"/>
<path d="M0.5 25V62.5L63 0H25.5L0.5 25Z" fill="url(#paint4_linear_287_2293)" fill-opacity="0.2"/>
</g>
<defs>
<filter id="filter0_i_287_2293" x="0.5" y="0" width="125" height="125" filterUnits="userSpaceOnUse" color-interpolation-filters="sRGB">
<feFlood flood-opacity="0" result="BackgroundImageFix"/>
<feBlend mode="normal" in="SourceGraphic" in2="BackgroundImageFix" result="shape"/>
<feColorMatrix in="SourceAlpha" type="matrix" values="0 0 0 0 0 0 0 0 0 0 0 0 0 0 0 0 0 0 127 0" result="hardAlpha"/>
<feOffset/>
<feGaussianBlur stdDeviation="6"/>
<feComposite in2="hardAlpha" operator="arithmetic" k2="-1" k3="1"/>
<feColorMatrix type="matrix" values="0 0 0 0 1 0 0 0 0 1 0 0 0 0 1 0 0 0 0.2 0"/>
<feBlend mode="normal" in2="shape" result="effect1_innerShadow_287_2293"/>
</filter>
<linearGradient id="paint0_linear_287_2293" x1="63" y1="-60.1086" x2="63" y2="125" gradientUnits="userSpaceOnUse">
<stop stop-color="white"/>
<stop offset="0.773658" stop-color="white" stop-opacity="0"/>
</linearGradient>
<linearGradient id="paint1_linear_287_2293" x1="63" y1="-60.1086" x2="63" y2="125" gradientUnits="userSpaceOnUse">
<stop stop-color="white"/>
<stop offset="0.773658" stop-color="white" stop-opacity="0"/>
</linearGradient>
<linearGradient id="paint2_linear_287_2293" x1="63" y1="-60.1086" x2="63" y2="125" gradientUnits="userSpaceOnUse">
<stop stop-color="white"/>
<stop offset="0.773658" stop-color="white" stop-opacity="0"/>
</linearGradient>
<linearGradient id="paint3_linear_287_2293" x1="63" y1="-60.1086" x2="63" y2="125" gradientUnits="userSpaceOnUse">
<stop stop-color="white"/>
<stop offset="0.773658" stop-color="white" stop-opacity="0"/>
</linearGradient>
<linearGradient id="paint4_linear_287_2293" x1="63" y1="-60.1086" x2="63" y2="125" gradientUnits="userSpaceOnUse">
<stop stop-color="white"/>
<stop offset="0.773658" stop-color="white" stop-opacity="0"/>
</linearGradient>
</defs>
</svg>
